<svg width="216" height="65" viewBox="0 0 216 65" fill="none" xmlns="http://www.w3.org/2000/svg">
<path d="M208 0H8C3.58172 0 0 3.58172 0 8V56C0 60.4183 3.58172 64 8 64H208C212.418 64 216 60.4183 216 56V8C216 3.58172 212.418 0 208 0Z" fill="black"/>
<path d="M208 1.28C209.782 1.28 211.492 1.988 212.752 3.24824C214.012 4.50849 214.72 6.21775 214.72 8V56C214.72 57.7823 214.012 59.4915 212.752 60.7518C211.492 62.012 209.782 62.72 208 62.72H8C6.21775 62.72 4.50849 62.012 3.24824 60.7518C1.988 59.4915 1.28 57.7823 1.28 56V8C1.28 6.21775 1.988 4.50849 3.24824 3.24824C4.50849 1.988 6.21775 1.28 8 1.28H208ZM208 0H8C5.87827 0 3.84344 0.842855 2.34315 2.34315C0.842855 3.84344 0 5.87827 0 8V56C0 58.1217 0.842855 60.1566 2.34315 61.6569C3.84344 63.1571 5.87827 64 8 64H208C210.122 64 212.157 63.1571 213.657 61.6569C215.157 60.1566 216 58.1217 216 56V8C216 5.87827 215.157 3.84344 213.657 2.34315C212.157 0.842855 210.122 0 208 0Z" fill="#A6A6A6"/>
<path d="M25 42.5C25 43.4625 25.7875 44.25 26.75 44.25H28.5V50.375C28.5 51.8275 29.6725 53 31.125 53C32.5775 53 33.75 51.8275 33.75 50.375V44.25H37.25V50.375C37.25 51.8275 38.4225 53 39.875 53C41.3275 53 42.5 51.8275 42.5 50.375V44.25H44.25C45.2125 44.25 46 43.4625 46 42.5V25H25V42.5ZM20.625 25C19.1725 25 18 26.1725 18 27.625V39.875C18 41.3275 19.1725 42.5 20.625 42.5C22.0775 42.5 23.25 41.3275 23.25 39.875V27.625C23.25 26.1725 22.0775 25 20.625 25ZM50.375 25C48.9225 25 47.75 26.1725 47.75 27.625V39.875C47.75 41.3275 48.9225 42.5 50.375 42.5C51.8275 42.5 53 41.3275 53 39.875V27.625C53 26.1725 51.8275 25 50.375 25ZM41.6775 14.78L43.9525 12.505C44.3025 12.155 44.3025 11.6125 43.9525 11.2625C43.6025 10.9125 43.06 10.9125 42.71 11.2625L40.12 13.8525C38.7375 13.1525 37.1625 12.75 35.5 12.75C33.82 12.75 32.245 13.1525 30.845 13.8525L28.2375 11.2625C27.8875 10.9125 27.345 10.9125 26.995 11.2625C26.645 11.6125 26.645 12.155 26.995 12.505L29.2875 14.7975C26.6975 16.705 25 19.7675 25 23.25H46C46 19.7675 44.3025 16.6875 41.6775 14.78ZM32 19.75H30.25V18H32V19.75ZM40.75 19.75H39V18H40.75V19.75Z" fill="#0A9429"/>
<path d="M74.3754 15.5775C74.4026 16.1644 74.3103 16.7507 74.104 17.3008C73.8977 17.8508 73.5818 18.3533 73.1754 18.7775C72.7217 19.2489 72.1737 19.6193 71.5672 19.8647C70.9607 20.11 70.3093 20.2248 69.6554 20.2015C68.6634 20.1938 67.6957 19.8934 66.8737 19.3381C66.0516 18.7828 65.4117 17.9972 65.0341 17.0798C64.6566 16.1624 64.5582 15.154 64.7512 14.1809C64.9443 13.2078 65.4202 12.3133 66.1194 11.6095C66.579 11.1404 67.1299 10.7705 67.7381 10.5229C68.3463 10.2752 68.9989 10.1549 69.6554 10.1695C70.3318 10.1673 71.0016 10.3034 71.6234 10.5695C72.2024 10.8031 72.7178 11.1704 73.1274 11.6415L72.2794 12.4895C71.9601 12.1097 71.5568 11.8093 71.1014 11.6122C70.646 11.415 70.1509 11.3265 69.6554 11.3535C69.1557 11.3511 68.6605 11.4496 68.1998 11.6431C67.739 11.8367 67.322 12.1213 66.9739 12.4799C66.6258 12.8384 66.3536 13.2636 66.1738 13.7299C65.994 14.1962 65.9102 14.6941 65.9274 15.1935C65.9169 15.9394 66.1276 16.6716 66.5328 17.2978C66.9379 17.9241 67.5195 18.4163 68.2041 18.7124C68.8887 19.0085 69.6457 19.0952 70.3795 18.9615C71.1133 18.8279 71.7911 18.4799 72.3274 17.9615C72.8198 17.428 73.1037 16.7352 73.1274 16.0095H69.6554V14.8575H74.3114C74.3541 15.0952 74.3755 15.3361 74.3754 15.5775ZM81.7034 11.5775H77.3834V14.6175H81.3194V15.7695H77.3834V18.8095H81.7034V19.9935H76.1034V10.3935H81.7034V11.5775ZM86.9514 19.9935H85.7194V11.5775H83.0314V10.3935H89.7034V11.5775H86.9514V19.9935ZM94.4074 19.9935V10.3935H95.6394V19.9935H94.4074ZM101.111 19.9935H99.8794V11.5775H97.1914V10.3935H103.783V11.5775H101.111V19.9935ZM116.279 18.7455C115.344 19.6757 114.079 20.1978 112.759 20.1978C111.44 20.1978 110.175 19.6757 109.239 18.7455C108.33 17.7832 107.824 16.5095 107.824 15.1855C107.824 13.8616 108.33 12.5879 109.239 11.6255C109.7 11.1611 110.249 10.7925 110.853 10.541C111.457 10.2895 112.105 10.16 112.759 10.16C113.414 10.16 114.062 10.2895 114.666 10.541C115.27 10.7925 115.818 11.1611 116.279 11.6255C117.192 12.5861 117.701 13.8605 117.701 15.1855C117.701 16.5106 117.192 17.785 116.279 18.7455ZM110.151 17.9455C110.844 18.6353 111.782 19.0226 112.759 19.0226C113.737 19.0226 114.675 18.6353 115.367 17.9455C116.051 17.192 116.43 16.211 116.43 15.1935C116.43 14.1761 116.051 13.1951 115.367 12.4415C114.675 11.7518 113.737 11.3645 112.759 11.3645C111.782 11.3645 110.844 11.7518 110.151 12.4415C109.468 13.1951 109.089 14.1761 109.089 15.1935C109.089 16.211 109.468 17.192 110.151 17.9455ZM119.431 19.9935V10.3935H120.935L125.607 17.8655V10.3935H126.839V19.9935H125.559L120.679 12.1695V19.9935H119.431Z" fill="white"/>
<path fill-rule="evenodd" clip-rule="evenodd" d="M112.759 10.32C112.126 10.32 111.499 10.4453 110.914 10.6887C110.33 10.9319 109.8 11.2881 109.354 11.7369C108.474 12.6694 107.984 13.9032 107.984 15.1855C107.984 16.4678 108.474 17.7014 109.354 18.6339C110.259 19.5331 111.483 20.0378 112.759 20.0378C114.036 20.0378 115.26 19.533 116.165 18.6337C117.049 17.7031 117.541 16.4688 117.541 15.1855C117.541 13.9021 117.048 12.6677 116.165 11.7371C115.719 11.2882 115.189 10.9319 114.604 10.6887C114.02 10.4453 113.393 10.32 112.759 10.32ZM110.791 10.3933C111.415 10.1337 112.084 10 112.759 10C113.435 10 114.104 10.1337 114.727 10.3933C115.351 10.653 115.917 11.0334 116.393 11.5128L116.395 11.5153C117.336 12.5056 117.861 13.8195 117.861 15.1855C117.861 16.5516 117.336 17.8655 116.395 18.8558L116.392 18.859C115.427 19.819 114.121 20.3578 112.759 20.3578C111.398 20.3578 110.092 19.819 109.127 18.859L109.123 18.8555C108.186 17.8634 107.664 16.5503 107.664 15.1855C107.664 13.8208 108.186 12.5077 109.123 11.5157L109.126 11.5128C109.602 11.0334 110.168 10.653 110.791 10.3933ZM69.6519 10.3295C69.0172 10.3154 68.3864 10.4316 67.7984 10.671C67.2105 10.9105 66.6779 11.268 66.2337 11.7215L66.2329 11.7223C65.5559 12.4038 65.0951 13.2698 64.9082 14.212C64.7212 15.1542 64.8165 16.1306 65.1821 17.0189C65.5477 17.9072 66.1673 18.6678 66.9632 19.2055C67.7592 19.7432 68.6962 20.034 69.6567 20.0416L69.6611 20.0416C70.2925 20.0641 70.9215 19.9533 71.5072 19.7164C72.0928 19.4795 72.6219 19.1218 73.06 18.6667C73.4513 18.2582 73.7555 17.7743 73.9542 17.2446C74.1529 16.7148 74.2418 16.1502 74.2156 15.585L74.3754 15.5775L74.2154 15.5775C74.2155 15.3901 74.2021 15.2029 74.1753 15.0175H69.8154V15.8495H73.2927L73.2873 16.0148C73.2624 16.7788 72.9634 17.5083 72.445 18.0701L72.4388 18.0768C71.8798 18.6171 71.1731 18.9797 70.4082 19.1189C69.6433 19.2582 68.8542 19.1679 68.1406 18.8592C67.427 18.5506 66.8208 18.0375 66.3984 17.3847C65.9768 16.733 65.7572 15.9713 65.7674 15.1952C65.75 14.6755 65.8374 14.1576 66.0245 13.6724C66.2121 13.186 66.496 12.7424 66.8591 12.3684C67.2222 11.9944 67.6572 11.6975 68.1378 11.4956C68.617 11.2943 69.1318 11.1916 69.6515 11.1935C70.1702 11.1659 70.6882 11.259 71.1649 11.4653C71.5898 11.6493 71.9714 11.9187 72.2864 12.2563L72.9067 11.636C72.5311 11.2368 72.073 10.9234 71.5636 10.7179L71.5605 10.7167C70.9587 10.4591 70.3106 10.3274 69.656 10.3295L69.6519 10.3295ZM74.5354 15.5739C74.5631 16.1811 74.4673 16.7877 74.2538 17.3569C74.0399 17.9273 73.7123 18.4483 73.291 18.8882C72.8216 19.3758 72.2545 19.7592 71.6272 20.013C71.0005 20.2665 70.3275 20.3853 69.652 20.3615C68.6292 20.3531 67.6317 20.0432 66.7841 19.4707C65.9359 18.8977 65.2757 18.0872 64.8862 17.1407C64.4966 16.1942 64.3951 15.1537 64.5943 14.1498C64.7934 13.146 65.2844 12.2232 66.0055 11.4972C66.4803 11.0126 67.0494 10.6305 67.6778 10.3747C68.3056 10.119 68.9792 9.99472 69.6569 10.0095C70.3539 10.0075 71.044 10.1478 71.6848 10.4218C72.2866 10.6648 72.8223 11.0468 73.2482 11.5366L73.3461 11.6492L72.2692 12.726L72.157 12.5925C71.8536 12.2317 71.4704 11.9463 71.0378 11.759C70.6052 11.5717 70.1349 11.4876 69.6642 11.5133L69.6546 11.5138C69.1764 11.5115 68.7026 11.6054 68.2617 11.7906C67.8208 11.9758 67.4218 12.2482 67.0887 12.5913C66.7556 12.9344 66.4952 13.3413 66.3231 13.7875C66.151 14.2337 66.0708 14.7101 66.0873 15.188L66.0876 15.1958C66.0776 15.91 66.2791 16.6112 66.6671 17.2109C67.0551 17.8106 67.612 18.282 68.2676 18.5655C68.9232 18.8491 69.6481 18.9321 70.3508 18.8041C71.0521 18.6764 71.6999 18.3444 72.2129 17.8497C72.6399 17.3855 72.9006 16.7947 72.9573 16.1695H69.4954V14.6975H74.4453L74.4689 14.8293C74.5131 15.075 74.5353 15.3242 74.5354 15.5739ZM75.9434 10.2335H81.8634V11.7375H77.5434V14.4575H81.4794V15.9295H77.5434V18.6495H81.8634V20.1535H75.9434V10.2335ZM76.2634 10.5535V19.8335H81.5434V18.9695H77.2234V15.6095H81.1594V14.7775H77.2234V11.4175H81.5434V10.5535H76.2634ZM82.8714 10.2335H89.8634V11.7375H87.1114V20.1535H85.5594V11.7375H82.8714V10.2335ZM83.1914 10.5535V11.4175H85.8794V19.8335H86.7914V11.4175H89.5434V10.5535H83.1914ZM94.2474 10.2335H95.7994V20.1535H94.2474V10.2335ZM94.5674 10.5535V19.8335H95.4794V10.5535H94.5674ZM97.0314 10.2335H103.943V11.7375H101.271V20.1535H99.7194V11.7375H97.0314V10.2335ZM97.3514 10.5535V11.4175H100.039V19.8335H100.951V11.4175H103.623V10.5535H97.3514ZM119.271 10.2335H121.024L125.447 17.3079V10.2335H126.999V20.1535H125.471L120.839 12.7284V20.1535H119.271V10.2335ZM119.591 10.5535V19.8335H120.519V11.6107L125.648 19.8335H126.679V10.5535H125.767V18.4232L120.847 10.5535H119.591ZM110.039 12.3282C110.761 11.6085 111.74 11.2045 112.759 11.2045C113.779 11.2045 114.758 11.6085 115.48 12.3282L115.486 12.3339C116.196 13.1169 116.59 14.1364 116.59 15.1935C116.59 16.2507 116.196 17.27 115.486 18.053L115.48 18.0591C114.758 18.7787 113.779 19.1826 112.759 19.1826C111.74 19.1826 110.761 18.7786 110.039 18.0589L110.151 17.9455L110.033 18.053C109.323 17.27 108.929 16.2507 108.929 15.1935C108.929 14.1364 109.323 13.1171 110.033 12.334L110.039 12.3282ZM110.267 17.8351C110.93 18.4932 111.826 18.8626 112.759 18.8626C113.693 18.8626 114.589 18.4932 115.252 17.8351C115.907 17.1113 116.27 16.1699 116.27 15.1935C116.27 14.2172 115.907 13.2758 115.252 12.552C114.589 11.8939 113.693 11.5245 112.759 11.5245C111.826 11.5245 110.93 11.8939 110.267 12.552C109.612 13.2758 109.249 14.2172 109.249 15.1935C109.249 16.1699 109.612 17.1113 110.267 17.8351Z" fill="white"/>
<path d="M68.5227 51H64.7955L73.1705 27.7273H77.2273L85.6023 51H81.875L75.2955 31.9545H75.1136L68.5227 51ZM69.1477 41.8864H81.2386V44.8409H69.1477V41.8864ZM92.0881 40.6364V51H88.6903V33.5455H91.9517V36.3864H92.1676C92.5691 35.4621 93.1979 34.7197 94.054 34.1591C94.9176 33.5985 96.0047 33.3182 97.3153 33.3182C98.5047 33.3182 99.5464 33.5682 100.44 34.0682C101.334 34.5606 102.027 35.2955 102.52 36.2727C103.012 37.25 103.259 38.4583 103.259 39.8977V51H99.8608V40.3068C99.8608 39.0417 99.5313 38.053 98.8722 37.3409C98.2131 36.6212 97.3078 36.2614 96.1562 36.2614C95.3684 36.2614 94.6676 36.4318 94.054 36.7727C93.4479 37.1136 92.9669 37.6136 92.6108 38.2727C92.2623 38.9242 92.0881 39.7121 92.0881 40.6364ZM114.349 51.3409C112.94 51.3409 111.683 50.9811 110.577 50.2614C109.478 49.5341 108.615 48.5 107.986 47.1591C107.365 45.8106 107.054 44.1932 107.054 42.3068C107.054 40.4205 107.368 38.8068 107.997 37.4659C108.634 36.125 109.505 35.0985 110.611 34.3864C111.717 33.6742 112.971 33.3182 114.372 33.3182C115.455 33.3182 116.327 33.5 116.986 33.8636C117.652 34.2197 118.168 34.6364 118.531 35.1136C118.902 35.5909 119.19 36.0114 119.395 36.375H119.599V27.7273H122.997V51H119.679V48.2841H119.395C119.19 48.6553 118.895 49.0795 118.509 49.5568C118.13 50.0341 117.607 50.4508 116.94 50.8068C116.274 51.1629 115.41 51.3409 114.349 51.3409ZM115.099 48.4432C116.077 48.4432 116.902 48.1856 117.577 47.6705C118.259 47.1477 118.774 46.4242 119.122 45.5C119.478 44.5758 119.656 43.5 119.656 42.2727C119.656 41.0606 119.482 40 119.134 39.0909C118.785 38.1818 118.274 37.4735 117.599 36.9659C116.925 36.4583 116.092 36.2045 115.099 36.2045C114.077 36.2045 113.224 36.4697 112.543 37C111.861 37.5303 111.346 38.2538 110.997 39.1705C110.656 40.0871 110.486 41.1212 110.486 42.2727C110.486 43.4394 110.66 44.4886 111.009 45.4205C111.357 46.3523 111.872 47.0909 112.554 47.6364C113.243 48.1742 114.092 48.4432 115.099 48.4432ZM127.847 51V33.5455H131.131V36.3182H131.312C131.631 35.3788 132.191 34.6402 132.994 34.1023C133.805 33.5568 134.722 33.2841 135.744 33.2841C135.956 33.2841 136.206 33.2917 136.494 33.3068C136.79 33.322 137.021 33.3409 137.188 33.3636V36.6136C137.051 36.5758 136.809 36.5341 136.46 36.4886C136.112 36.4356 135.763 36.4091 135.415 36.4091C134.612 36.4091 133.896 36.5795 133.267 36.9205C132.646 37.2538 132.153 37.7197 131.79 38.3182C131.426 38.9091 131.244 39.5833 131.244 40.3409V51H127.847ZM146.855 51.3523C145.219 51.3523 143.791 50.9773 142.571 50.2273C141.351 49.4773 140.404 48.428 139.73 47.0795C139.056 45.7311 138.719 44.1553 138.719 42.3523C138.719 40.5417 139.056 38.9583 139.73 37.6023C140.404 36.2462 141.351 35.1932 142.571 34.4432C143.791 33.6932 145.219 33.3182 146.855 33.3182C148.491 33.3182 149.92 33.6932 151.139 34.4432C152.359 35.1932 153.306 36.2462 153.98 37.6023C154.654 38.9583 154.991 40.5417 154.991 42.3523C154.991 44.1553 154.654 45.7311 153.98 47.0795C153.306 48.428 152.359 49.4773 151.139 50.2273C149.92 50.9773 148.491 51.3523 146.855 51.3523ZM146.866 48.5C147.927 48.5 148.806 48.2197 149.503 47.6591C150.2 47.0985 150.715 46.3523 151.048 45.4205C151.389 44.4886 151.56 43.4621 151.56 42.3409C151.56 41.2273 151.389 40.2045 151.048 39.2727C150.715 38.3333 150.2 37.5795 149.503 37.0114C148.806 36.4432 147.927 36.1591 146.866 36.1591C145.798 36.1591 144.912 36.4432 144.207 37.0114C143.51 37.5795 142.991 38.3333 142.651 39.2727C142.317 40.2045 142.151 41.2273 142.151 42.3409C142.151 43.4621 142.317 44.4886 142.651 45.4205C142.991 46.3523 143.51 47.0985 144.207 47.6591C144.912 48.2197 145.798 48.5 146.866 48.5ZM158.784 51V33.5455H162.182V51H158.784ZM160.5 30.8523C159.909 30.8523 159.402 30.6553 158.977 30.2614C158.561 29.8598 158.352 29.3826 158.352 28.8295C158.352 28.2689 158.561 27.7917 158.977 27.3977C159.402 26.9962 159.909 26.7955 160.5 26.7955C161.091 26.7955 161.595 26.9962 162.011 27.3977C162.436 27.7917 162.648 28.2689 162.648 28.8295C162.648 29.3826 162.436 29.8598 162.011 30.2614C161.595 30.6553 161.091 30.8523 160.5 30.8523ZM173.287 51.3409C171.878 51.3409 170.62 50.9811 169.514 50.2614C168.416 49.5341 167.552 48.5 166.923 47.1591C166.302 45.8106 165.991 44.1932 165.991 42.3068C165.991 40.4205 166.306 38.8068 166.935 37.4659C167.571 36.125 168.442 35.0985 169.548 34.3864C170.654 33.6742 171.908 33.3182 173.31 33.3182C174.393 33.3182 175.264 33.5 175.923 33.8636C176.59 34.2197 177.105 34.6364 177.469 35.1136C177.84 35.5909 178.128 36.0114 178.332 36.375H178.537V27.7273H181.935V51H178.616V48.2841H178.332C178.128 48.6553 177.832 49.0795 177.446 49.5568C177.067 50.0341 176.545 50.4508 175.878 50.8068C175.211 51.1629 174.348 51.3409 173.287 51.3409ZM174.037 48.4432C175.014 48.4432 175.84 48.1856 176.514 47.6705C177.196 47.1477 177.711 46.4242 178.06 45.5C178.416 44.5758 178.594 43.5 178.594 42.2727C178.594 41.0606 178.42 40 178.071 39.0909C177.723 38.1818 177.211 37.4735 176.537 36.9659C175.863 36.4583 175.029 36.2045 174.037 36.2045C173.014 36.2045 172.162 36.4697 171.48 37C170.798 37.5303 170.283 38.2538 169.935 39.1705C169.594 40.0871 169.423 41.1212 169.423 42.2727C169.423 43.4394 169.598 44.4886 169.946 45.4205C170.295 46.3523 170.81 47.0909 171.491 47.6364C172.181 48.1742 173.029 48.4432 174.037 48.4432Z" fill="white"/>
</svg>
