<svg width="27" height="27" viewBox="0 0 27 27" fill="none" xmlns="http://www.w3.org/2000/svg">
<path d="M25.1885 6.74955C24.0035 4.69741 22.2993 2.99331 20.2471 1.80853C18.1948 0.623737 15.8669 0 13.4972 0C11.1275 0 8.79961 0.623737 6.74738 1.80853C4.69514 2.99331 2.99091 4.69741 1.80597 6.74955L2.61599 21.3299L25.1885 6.74955Z" fill="url(#paint0_linear_351_118)"/>
<path d="M7.65433 16.8747L1.8087 6.74951C0.623813 8.80179 1.50511e-05 11.1298 2.72363e-10 13.4996C-1.50505e-05 15.8693 0.623753 18.1974 1.80861 20.2497C2.99347 22.302 4.69767 24.0062 6.74993 25.1911C8.80218 26.3761 11.1302 26.9999 13.5 27L26.7302 13.4997L7.65433 16.8747Z" fill="url(#paint1_linear_351_118)"/>
<path d="M19.3456 16.8747L13.4999 27C15.8695 26.9994 18.1971 26.3752 20.249 25.1901C22.3009 24.005 24.0047 22.3007 25.1893 20.2485C26.3738 18.1963 26.9973 15.8684 26.9972 13.4989C26.9971 11.1294 26.3733 8.80159 25.1885 6.74951H13.4999L19.3456 16.8747Z" fill="url(#paint2_linear_351_118)"/>
<path d="M13.5 20.2498C14.3864 20.2498 15.2642 20.0752 16.0831 19.736C16.9021 19.3968 17.6462 18.8995 18.273 18.2727C18.8998 17.6459 19.3971 16.9018 19.7363 16.0828C20.0755 15.2639 20.2501 14.3861 20.2501 13.4997C20.2501 12.6132 20.0755 11.7355 19.7363 10.9165C19.3971 10.0975 18.8998 9.35339 18.273 8.72658C17.6462 8.09978 16.9021 7.60256 16.0831 7.26334C15.2642 6.92411 14.3864 6.74951 13.5 6.74951C11.7097 6.74951 9.99279 7.46069 8.72689 8.72658C7.46099 9.99248 6.74982 11.7094 6.74982 13.4997C6.74982 15.2899 7.46099 17.0068 8.72689 18.2727C9.99279 19.5386 11.7097 20.2498 13.5 20.2498Z" fill="white"/>
<path d="M13.4999 18.846C14.202 18.846 14.8972 18.7078 15.5458 18.4391C16.1944 18.1704 16.7838 17.7766 17.2802 17.2802C17.7766 16.7838 18.1704 16.1944 18.4391 15.5458C18.7078 14.8972 18.846 14.202 18.846 13.4999C18.846 12.7979 18.7078 12.1027 18.4391 11.4541C18.1704 10.8054 17.7766 10.2161 17.2802 9.71965C16.7838 9.22322 16.1944 8.82943 15.5458 8.56076C14.8972 8.29209 14.202 8.15381 13.4999 8.15381C12.082 8.15381 10.7222 8.71706 9.71965 9.71965C8.71706 10.7222 8.15381 12.082 8.15381 13.4999C8.15381 14.9178 8.71706 16.2776 9.71965 17.2802C10.7222 18.2828 12.082 18.846 13.4999 18.846Z" fill="#1A73E8"/>
<defs>
<linearGradient id="paint0_linear_351_118" x1="1.80867" y1="8.43709" x2="25.1885" y2="8.43709" gradientUnits="userSpaceOnUse">
<stop stop-color="#D93025"/>
<stop offset="1" stop-color="#EA4335"/>
</linearGradient>
<linearGradient id="paint1_linear_351_118" x1="14.9607" y1="26.1548" x2="3.26943" y2="5.90439" gradientUnits="userSpaceOnUse">
<stop stop-color="#1E8E3E"/>
<stop offset="1" stop-color="#34A853"/>
</linearGradient>
<linearGradient id="paint2_linear_351_118" x1="11.5289" y1="27" x2="23.2202" y2="6.78461" gradientUnits="userSpaceOnUse">
<stop stop-color="#FCC934"/>
<stop offset="1" stop-color="#FBBC04"/>
</linearGradient>
</defs>
</svg>
