<svg width="27" height="27" viewBox="0 0 27 27" fill="none" xmlns="http://www.w3.org/2000/svg">
<path d="M27 13.5C27 6.04339 20.9566 0 13.5 0C6.04339 0 0 6.04339 0 13.5C0 20.2395 4.93594 25.824 11.3906 26.8365V17.4023H7.96286V13.5H11.3906V10.5258C11.3906 7.14285 13.4051 5.27344 16.49 5.27344C17.9666 5.27344 19.5117 5.53711 19.5117 5.53711V8.85938H17.8084C16.1314 8.85938 15.6094 9.9009 15.6094 10.9688V13.5H19.3535L18.755 17.4023H15.6094V26.8365C22.0641 25.824 27 20.2395 27 13.5Z" fill="#1877F2"/>
<path d="M18.755 17.4023L19.3535 13.5H15.6094V10.9688C15.6094 9.9009 16.1315 8.85938 17.8084 8.85938H19.5117V5.53711C19.5117 5.53711 17.9666 5.27344 16.4901 5.27344C13.4051 5.27344 11.3907 7.14285 11.3907 10.5258V13.5H7.96289V17.4023H11.3907V26.8365C12.0788 26.9447 12.7828 27 13.5 27C14.2172 27 14.9212 26.9447 15.6094 26.8365V17.4023H18.755Z" fill="white"/>
</svg>
