<svg width="38" height="37" viewBox="0 0 38 37" fill="none" xmlns="http://www.w3.org/2000/svg">
<path d="M1 24L19.229 1.93327C19.629 1.44911 20.371 1.44911 20.771 1.93327L39 24" stroke="white" stroke-width="2" stroke-linecap="round" stroke-linejoin="round"/>
<path d="M6.5 17.6543L19.2427 2.87814C19.6416 2.41557 20.3584 2.41557 20.7573 2.87814L33.5 17.6543L34.5878 25.3785C34.8611 27.319 34.8477 29.2891 34.5481 31.2257L33.7621 36.3058C33.6113 37.2807 32.7721 38 31.7856 38H8.21436C7.22786 38 6.38871 37.2807 6.23787 36.3058L5.45188 31.2257C5.15225 29.2891 5.13887 27.319 5.41216 25.3785L6.5 17.6543Z" stroke="white" stroke-width="2" stroke-linejoin="round"/>
<path d="M20 23C22.7614 23 25 25.379 25 28.3137V38H15V28.3137C15 25.379 17.2386 23 20 23Z" stroke="white" stroke-width="2" stroke-linecap="round" stroke-linejoin="round"/>
</svg>
