<!-- <svg width="34" height="36" viewBox="0 0 34 36" fill="none" xmlns="http://www.w3.org/2000/svg">
<path d="M5.70137 11.0256C3.60027 11.2721 1.8446 12.8534 1.50339 15.0031C1.15924 17.1713 1 19.4147 1 22.5145C1 25.6143 1.15925 27.8578 1.5034 30.0262C1.8446 32.1759 3.60027 33.7571 5.70137 34.0036C9.33825 34.4303 13.1169 34.75 17 34.75C20.8831 34.75 24.6618 34.4303 28.2986 34.0036C30.3997 33.7571 32.1554 32.1759 32.4966 30.0262C32.8408 27.8578 33 25.6143 33 22.5145C33 19.4147 32.8408 17.1713 32.4966 15.0031C32.1554 12.8534 30.3997 11.2721 28.2986 11.0256" stroke="white" stroke-width="2" stroke-linecap="round" stroke-linejoin="round"/>
<path d="M3 13.0886L16.2577 23.4712C16.9808 24.0375 17.9968 24.0385 18.721 23.4735L32 13.1147" stroke="white" stroke-width="2" stroke-linejoin="round"/>
<path d="M11 6.8996C13.1568 9.615 14.4719 10.9718 17 13.0886C19.5281 10.9718 20.8432 9.615 23 6.8996" stroke="white" stroke-width="2" stroke-linecap="round" stroke-linejoin="round"/>
<path d="M17.2179 13.2062L17.2179 2" stroke="white" stroke-width="2" stroke-linecap="round" stroke-linejoin="round"/>
</svg> -->

<svg width="33" height="36" viewBox="0 0 33 36" fill="none" xmlns="http://www.w3.org/2000/svg">
<path d="M18.2222 1L1 21.4H16.5L14.7778 35L32 14.6H16.5L18.2222 1Z" stroke="white" stroke-width="2" stroke-linecap="round" stroke-linejoin="round"/>
</svg>