<!-- <svg width="42" height="40" viewBox="0 0 42 40" fill="none" xmlns="http://www.w3.org/2000/svg">
<path d="M9.27572 27.3106H7.76196V13.0725H9.27572L15.609 2.00655C15.9652 1.38406 16.6276 1 17.3448 1H19.2646C20.4786 1 21.4126 2.07274 21.2456 3.27517L20.4863 8.74119H25.4053C27.556 8.74119 31.8572 10.9068 31.8572 15.2381C31.8572 19.5694 27.5324 29.4762 22.9576 29.4762C16.9359 29.4762 11.7848 28.0324 9.27572 27.3106Z" stroke="white" stroke-width="2" stroke-linecap="round" stroke-linejoin="round"/>
<path d="M1.19043 11.9524C1.19043 10.1377 2.66149 8.66669 4.47614 8.66669V8.66669C6.29079 8.66669 7.76186 10.1378 7.76186 11.9524V27.2857C7.76186 29.1004 6.29079 30.5714 4.47614 30.5714V30.5714C2.66149 30.5714 1.19043 29.1004 1.19043 27.2857V11.9524Z" stroke="white" stroke-width="2" stroke-linejoin="round"/>
</svg> -->

<svg width="38" height="36" viewBox="0 0 38 36" fill="none" xmlns="http://www.w3.org/2000/svg">
<path d="M778 24L796.229 1.93327C796.629 1.44911 797.371 1.44911 797.771 1.93327L816 24" stroke="white" stroke-width="2" stroke-linecap="round" stroke-linejoin="round"/>
<path d="M783.5 17.6543L796.243 2.87814C796.642 2.41557 797.358 2.41557 797.757 2.87814L810.5 17.6543L811.588 25.3785C811.861 27.319 811.848 29.2891 811.548 31.2257L810.762 36.3058C810.611 37.2807 809.772 38 808.786 38H785.214C784.228 38 783.389 37.2807 783.238 36.3058L782.452 31.2257C782.152 29.2891 782.139 27.319 782.412 25.3785L783.5 17.6543Z" stroke="white" stroke-width="2" stroke-linejoin="round"/>
<path d="M797 23C799.761 23 802 25.379 802 28.3137V38H792V28.3137C792 25.379 794.239 23 797 23Z" stroke="white" stroke-width="2" stroke-linecap="round" stroke-linejoin="round"/>
<path d="M27 36V32.6667C27 30.8986 26.3152 29.2029 25.0962 27.9526C23.8772 26.7024 22.2239 26 20.5 26H7.5C5.77609 26 4.12279 26.7024 2.90381 27.9526C1.68482 29.2029 1 30.8986 1 32.6667V36" stroke="white" stroke-width="2" stroke-linecap="round" stroke-linejoin="round"/>
<path d="M14.5 20C18.6421 20 22 16.6421 22 12.5C22 8.35786 18.6421 5 14.5 5C10.3579 5 7 8.35786 7 12.5C7 16.6421 10.3579 20 14.5 20Z" stroke="white" stroke-width="2" stroke-linecap="round" stroke-linejoin="round"/>
</svg>
