<svg width="38" height="40" viewBox="0 0 38 40" fill="none" xmlns="http://www.w3.org/2000/svg">
<g clip-path="url(#clip0_42_526)">
<path d="M2.96144 29.9334C3.03332 30.8894 3.76571 31.6696 4.71874 31.7736C10.855 32.4434 16.3256 32.4434 22.4619 31.7736C23.415 31.6696 24.1473 30.8894 24.2192 29.9334C24.5299 25.8012 24.9697 21.462 24.9697 16.987C24.9697 12.512 24.53 8.17275 24.2192 4.04055C24.1473 3.08456 23.415 2.30439 22.4619 2.20037C16.3256 1.53062 10.855 1.53062 4.71874 2.20037C3.76571 2.30439 3.03332 3.08456 2.96144 4.04055C2.65071 8.17275 2.21094 12.512 2.21094 16.987C2.21094 21.462 2.65071 25.8012 2.96144 29.9334Z" stroke="white" stroke-width="2"/>
<path d="M10.2803 27.4565H16.707" stroke="white" stroke-width="2" stroke-linecap="round" stroke-linejoin="round"/>
<path d="M10.2803 7.01245H16.707" stroke="white" stroke-width="2" stroke-linecap="round" stroke-linejoin="round"/>
</g>
<defs>
<clipPath id="clip0_42_526">
<rect width="40" height="42.5" fill="white"/>
</clipPath>
</defs>
</svg>
