<svg width="41" height="42" viewBox="0 0 41 42" fill="none" xmlns="http://www.w3.org/2000/svg">
<path d="M20.7619 39.5936C30.6242 39.5936 38.6191 31.232 38.6191 20.9174C38.6191 10.6028 30.6242 2.24115 20.7619 2.24115C10.8997 2.24115 2.90479 10.6028 2.90479 20.9174C2.90479 31.232 10.8997 39.5936 20.7619 39.5936Z" stroke="white" stroke-width="2" stroke-linecap="round" stroke-linejoin="round"/>
<path d="M11.696 23.7903C13.0697 28.9622 18.5642 32.1227 23.5092 30.6861C26.5312 29.5368 29.0037 26.9509 29.8279 23.7903" stroke="white" stroke-width="2" stroke-linecap="round" stroke-linejoin="round"/>
<path d="M28.0423 16.6074C27.663 16.6074 27.3555 16.2858 27.3555 15.8891C27.3555 15.4924 27.663 15.1708 28.0423 15.1708" stroke="white" stroke-width="2" stroke-linecap="round" stroke-linejoin="round"/>
<path d="M28.0422 16.6075C28.4215 16.6075 28.729 16.2859 28.729 15.8892C28.729 15.4924 28.4215 15.1708 28.0422 15.1708" stroke="white" stroke-width="2" stroke-linecap="round" stroke-linejoin="round"/>
<path d="M13.4817 16.6074C13.1024 16.6074 12.7949 16.2858 12.7949 15.8891C12.7949 15.4924 13.1024 15.1708 13.4817 15.1708" stroke="white" stroke-width="2" stroke-linecap="round" stroke-linejoin="round"/>
<path d="M13.4819 16.6075C13.8612 16.6075 14.1687 16.2859 14.1687 15.8892C14.1687 15.4924 13.8612 15.1708 13.4819 15.1708" stroke="white" stroke-width="2" stroke-linecap="round" stroke-linejoin="round"/>
</svg>
