<svg width="27" height="27" viewBox="0 0 27 27" fill="none" xmlns="http://www.w3.org/2000/svg">
<path d="M13.501 0C9.83457 0 9.37444 0.0160315 7.93443 0.0815628C6.49722 0.147375 5.51621 0.374906 4.65783 0.70875C3.76991 1.05356 3.01672 1.51481 2.26634 2.26547C1.51539 3.01584 1.05414 3.76903 0.708195 4.65666C0.373504 5.51531 0.145689 6.49659 0.0810009 7.93322C0.0168752 9.37322 0 9.83362 0 13.5C0 17.1664 0.0163129 17.6251 0.0815636 19.0651C0.147658 20.5023 0.375192 21.4833 0.708758 22.3417C1.05385 23.2296 1.51511 23.9828 2.26577 24.7331C3.01588 25.4841 3.76907 25.9464 4.65642 26.2913C5.51537 26.6251 6.49666 26.8526 7.93358 26.9184C9.3736 26.984 9.83345 27 13.4996 27C17.1663 27 17.625 26.984 19.065 26.9184C20.5022 26.8526 21.4844 26.6251 22.3433 26.2913C23.2309 25.9464 23.983 25.4841 24.7331 24.7331C25.484 23.9828 25.9453 23.2296 26.2912 22.3419C26.6231 21.4833 26.8509 20.502 26.9184 19.0654C26.9831 17.6254 27 17.1664 27 13.5C27 9.83362 26.9831 9.3735 26.9184 7.9335C26.8509 6.49631 26.6231 5.51531 26.2912 4.65694C25.9453 3.76903 25.484 3.01584 24.7331 2.26547C23.9822 1.51453 23.2312 1.05328 22.3425 0.70875C21.4818 0.374906 20.5002 0.147375 19.063 0.0815628C17.623 0.0160315 17.1646 0 13.497 0H13.501ZM12.2899 2.43281C12.6494 2.43225 13.0504 2.43281 13.501 2.43281C17.1055 2.43281 17.5327 2.44575 18.9562 2.51044C20.2724 2.57063 20.9868 2.79056 21.4627 2.97534C22.0927 3.22003 22.5419 3.51253 23.0141 3.98503C23.4866 4.45753 23.7791 4.90753 24.0243 5.53753C24.2091 6.01284 24.4293 6.72722 24.4893 8.04347C24.5539 9.46659 24.568 9.89409 24.568 13.4969C24.568 17.0997 24.5539 17.5272 24.4893 18.9503C24.4291 20.2666 24.2091 20.981 24.0243 21.4563C23.7797 22.0863 23.4866 22.5349 23.0141 23.0071C22.5416 23.4796 22.093 23.7721 21.4627 24.0168C20.9874 24.2024 20.2724 24.4218 18.9562 24.482C17.533 24.5467 17.1055 24.5607 13.501 24.5607C9.89617 24.5607 9.46894 24.5467 8.0458 24.482C6.72954 24.4212 6.01516 24.2013 5.539 24.0165C4.90899 23.7718 4.45898 23.4793 3.98648 23.0068C3.51397 22.5343 3.22147 22.0854 2.97622 21.4552C2.79144 20.9798 2.57121 20.2655 2.51131 18.9492C2.44662 17.5261 2.43368 17.0986 2.43368 13.4935C2.43368 9.88847 2.44662 9.46322 2.51131 8.04009C2.5715 6.72384 2.79144 6.00947 2.97622 5.53359C3.22091 4.90359 3.51397 4.45359 3.98648 3.98109C4.45898 3.50859 4.90899 3.21609 5.539 2.97084C6.01488 2.78522 6.72954 2.56584 8.0458 2.50538C9.29119 2.44913 9.77382 2.43225 12.2899 2.42944V2.43281Z" fill="url(#paint0_radial_34_395)"/>
<path d="M20.6782 4.64121C20.3578 4.64121 20.0445 4.73624 19.7781 4.91427C19.5117 5.0923 19.3041 5.34535 19.1815 5.6414C19.0589 5.93744 19.0268 6.2632 19.0894 6.57747C19.1519 6.89173 19.3063 7.18039 19.5329 7.40693C19.7595 7.63346 20.0482 7.78771 20.3625 7.85015C20.6768 7.9126 21.0026 7.88044 21.2986 7.75774C21.5946 7.63504 21.8475 7.42731 22.0255 7.16083C22.2034 6.89435 22.2983 6.58108 22.2982 6.26065C22.2982 5.36628 21.5726 4.64065 20.6782 4.64065V4.64121Z" fill="url(#paint1_radial_34_395)"/>
<path fill-rule="evenodd" clip-rule="evenodd" d="M13.472 6.53403C9.64326 6.53403 6.53907 9.63818 6.53907 13.4668C6.53907 17.2955 9.64326 20.3982 13.472 20.3982C17.3006 20.3982 20.404 17.2955 20.404 13.4668C20.404 9.63818 17.3006 6.53403 13.472 6.53403ZM13.5 17.9297C15.9465 17.9297 17.9297 15.9465 17.9297 13.5C17.9297 11.0536 15.9465 9.07034 13.5 9.07034C11.0536 9.07034 9.07032 11.0536 9.07032 13.5C9.07032 15.9465 11.0536 17.9297 13.5 17.9297Z" fill="url(#paint2_radial_34_395)"/>
<path d="M13.501 0C9.83457 0 9.37444 0.0160315 7.93443 0.0815628C6.49722 0.147375 5.51621 0.374906 4.65783 0.70875C3.76991 1.05356 3.01672 1.51481 2.26634 2.26547C1.51539 3.01584 1.05414 3.76903 0.708195 4.65666C0.373504 5.51531 0.145689 6.49659 0.0810009 7.93322C0.0168752 9.37322 0 9.83362 0 13.5C0 17.1664 0.0163129 17.6251 0.0815636 19.0651C0.147658 20.5023 0.375192 21.4833 0.708758 22.3417C1.05385 23.2296 1.51511 23.9828 2.26577 24.7331C3.01588 25.4841 3.76907 25.9464 4.65642 26.2913C5.51537 26.6251 6.49666 26.8526 7.93358 26.9184C9.3736 26.984 9.83345 27 13.4996 27C17.1663 27 17.625 26.984 19.065 26.9184C20.5022 26.8526 21.4844 26.6251 22.3433 26.2913C23.2309 25.9464 23.983 25.4841 24.7331 24.7331C25.484 23.9828 25.9453 23.2296 26.2912 22.3419C26.6231 21.4833 26.8509 20.502 26.9184 19.0654C26.9831 17.6254 27 17.1664 27 13.5C27 9.83362 26.9831 9.3735 26.9184 7.9335C26.8509 6.49631 26.6231 5.51531 26.2912 4.65694C25.9453 3.76903 25.484 3.01584 24.7331 2.26547C23.9822 1.51453 23.2312 1.05328 22.3425 0.70875C21.4818 0.374906 20.5002 0.147375 19.063 0.0815628C17.623 0.0160315 17.1646 0 13.497 0H13.501ZM12.2899 2.43281C12.6494 2.43225 13.0504 2.43281 13.501 2.43281C17.1055 2.43281 17.5327 2.44575 18.9562 2.51044C20.2724 2.57063 20.9868 2.79056 21.4627 2.97534C22.0927 3.22003 22.5419 3.51253 23.0141 3.98503C23.4866 4.45753 23.7791 4.90753 24.0243 5.53753C24.2091 6.01284 24.4293 6.72722 24.4893 8.04347C24.5539 9.46659 24.568 9.89409 24.568 13.4969C24.568 17.0997 24.5539 17.5272 24.4893 18.9503C24.4291 20.2666 24.2091 20.981 24.0243 21.4563C23.7797 22.0863 23.4866 22.5349 23.0141 23.0071C22.5416 23.4796 22.093 23.7721 21.4627 24.0168C20.9874 24.2024 20.2724 24.4218 18.9562 24.482C17.533 24.5467 17.1055 24.5607 13.501 24.5607C9.89617 24.5607 9.46894 24.5467 8.0458 24.482C6.72954 24.4212 6.01516 24.2013 5.539 24.0165C4.90899 23.7718 4.45898 23.4793 3.98648 23.0068C3.51397 22.5343 3.22147 22.0854 2.97622 21.4552C2.79144 20.9798 2.57121 20.2655 2.51131 18.9492C2.44662 17.5261 2.43368 17.0986 2.43368 13.4935C2.43368 9.88847 2.44662 9.46322 2.51131 8.04009C2.5715 6.72384 2.79144 6.00947 2.97622 5.53359C3.22091 4.90359 3.51397 4.45359 3.98648 3.98109C4.45898 3.50859 4.90899 3.21609 5.539 2.97084C6.01488 2.78522 6.72954 2.56584 8.0458 2.50538C9.29119 2.44913 9.77382 2.43225 12.2899 2.42944V2.43281Z" fill="url(#paint3_radial_34_395)"/>
<path d="M20.6782 4.64121C20.3578 4.64121 20.0445 4.73624 19.7781 4.91427C19.5117 5.0923 19.3041 5.34535 19.1815 5.6414C19.0589 5.93744 19.0268 6.2632 19.0894 6.57747C19.1519 6.89173 19.3063 7.18039 19.5329 7.40693C19.7595 7.63346 20.0482 7.78771 20.3625 7.85015C20.6768 7.9126 21.0026 7.88044 21.2986 7.75774C21.5946 7.63504 21.8475 7.42731 22.0255 7.16083C22.2034 6.89435 22.2983 6.58108 22.2982 6.26065C22.2982 5.36628 21.5726 4.64065 20.6782 4.64065V4.64121Z" fill="url(#paint4_radial_34_395)"/>
<path fill-rule="evenodd" clip-rule="evenodd" d="M13.472 6.53403C9.64326 6.53403 6.53907 9.63818 6.53907 13.4668C6.53907 17.2955 9.64326 20.3982 13.472 20.3982C17.3006 20.3982 20.404 17.2955 20.404 13.4668C20.404 9.63818 17.3006 6.53403 13.472 6.53403ZM13.5 17.9297C15.9465 17.9297 17.9297 15.9465 17.9297 13.5C17.9297 11.0536 15.9465 9.07034 13.5 9.07034C11.0536 9.07034 9.07032 11.0536 9.07032 13.5C9.07032 15.9465 11.0536 17.9297 13.5 17.9297Z" fill="url(#paint5_radial_34_395)"/>
<defs>
<radialGradient id="paint0_radial_34_395" cx="0" cy="0" r="1" gradientUnits="userSpaceOnUse" gradientTransform="translate(7.17191 29.0796) rotate(-90) scale(26.759 24.888)">
<stop stop-color="#FFDD55"/>
<stop offset="0.1" stop-color="#FFDD55"/>
<stop offset="0.5" stop-color="#FF543E"/>
<stop offset="1" stop-color="#C837AB"/>
</radialGradient>
<radialGradient id="paint1_radial_34_395" cx="0" cy="0" r="1" gradientUnits="userSpaceOnUse" gradientTransform="translate(7.17191 29.0796) rotate(-90) scale(26.759 24.888)">
<stop stop-color="#FFDD55"/>
<stop offset="0.1" stop-color="#FFDD55"/>
<stop offset="0.5" stop-color="#FF543E"/>
<stop offset="1" stop-color="#C837AB"/>
</radialGradient>
<radialGradient id="paint2_radial_34_395" cx="0" cy="0" r="1" gradientUnits="userSpaceOnUse" gradientTransform="translate(7.17191 29.0796) rotate(-90) scale(26.759 24.888)">
<stop stop-color="#FFDD55"/>
<stop offset="0.1" stop-color="#FFDD55"/>
<stop offset="0.5" stop-color="#FF543E"/>
<stop offset="1" stop-color="#C837AB"/>
</radialGradient>
<radialGradient id="paint3_radial_34_395" cx="0" cy="0" r="1" gradientUnits="userSpaceOnUse" gradientTransform="translate(-4.52264 1.94503) rotate(78.6806) scale(11.9614 49.3053)">
<stop stop-color="#3771C8"/>
<stop offset="0.128" stop-color="#3771C8"/>
<stop offset="1" stop-color="#6600FF" stop-opacity="0"/>
</radialGradient>
<radialGradient id="paint4_radial_34_395" cx="0" cy="0" r="1" gradientUnits="userSpaceOnUse" gradientTransform="translate(-4.52264 1.94503) rotate(78.6806) scale(11.9614 49.3053)">
<stop stop-color="#3771C8"/>
<stop offset="0.128" stop-color="#3771C8"/>
<stop offset="1" stop-color="#6600FF" stop-opacity="0"/>
</radialGradient>
<radialGradient id="paint5_radial_34_395" cx="0" cy="0" r="1" gradientUnits="userSpaceOnUse" gradientTransform="translate(-4.52264 1.94503) rotate(78.6806) scale(11.9614 49.3053)">
<stop stop-color="#3771C8"/>
<stop offset="0.128" stop-color="#3771C8"/>
<stop offset="1" stop-color="#6600FF" stop-opacity="0"/>
</radialGradient>
</defs>
</svg>
