<svg width="26" height="27" viewBox="0 0 26 27" fill="none" xmlns="http://www.w3.org/2000/svg">
<path fill-rule="evenodd" clip-rule="evenodd" d="M10.3841 10.6315V9.57843C10.005 9.52668 9.62285 9.49979 9.24001 9.49805C4.55862 9.49805 0.75 13.1713 0.75 17.6855C0.75 20.4546 2.1852 22.9059 4.37457 24.3882C2.90861 22.8764 2.0936 20.8837 2.09479 18.8141C2.09479 14.3641 5.79502 10.7354 10.3841 10.6315Z" fill="#00F2EA"/>
<path fill-rule="evenodd" clip-rule="evenodd" d="M10.5842 22.5525C12.6728 22.5525 14.3768 20.9503 14.4543 18.9536L14.4614 1.12856H17.8384C17.7663 0.756383 17.7299 0.37861 17.7294 0H13.1173L13.1096 17.8256C13.0326 19.8218 11.3281 21.4234 9.24005 21.4234C8.61314 21.4236 7.99568 21.2763 7.44122 20.9942C7.79921 21.4759 8.27101 21.8684 8.81754 22.1394C9.36406 22.4104 9.96962 22.552 10.5842 22.5525ZM24.1468 7.17885V6.18817C22.9057 6.1893 21.6913 5.84117 20.6524 5.18641C21.5633 6.19768 22.7896 6.89676 24.1475 7.17885" fill="#00F2EA"/>
<path fill-rule="evenodd" clip-rule="evenodd" d="M20.6522 5.18553C19.6341 4.0622 19.0733 2.62078 19.074 1.12891H17.8382C17.9982 1.9535 18.3301 2.73819 18.8138 3.43548C19.2975 4.13276 19.9229 4.72813 20.6522 5.18553ZM9.23979 13.9456C8.21184 13.9468 7.22636 14.341 6.49947 15.0419C5.77263 15.7428 5.36377 16.6931 5.36255 17.6843C5.36325 18.3662 5.55715 19.035 5.92337 19.6183C6.28958 20.2015 6.81412 20.6772 7.44032 20.994C6.96351 20.3599 6.70678 19.5967 6.70672 18.8136C6.70772 17.8222 7.11652 16.8718 7.84341 16.1707C8.5703 15.4697 9.5559 15.0753 10.584 15.0742C10.9835 15.0742 11.3663 15.1378 11.728 15.2473V10.7065C11.349 10.6547 10.9667 10.6278 10.584 10.6261C10.5166 10.6261 10.4506 10.6298 10.3839 10.631V14.1188C10.0139 14.0052 9.62806 13.9468 9.23979 13.9456Z" fill="#FF004F"/>
<path fill-rule="evenodd" clip-rule="evenodd" d="M24.147 7.17884V10.6356C21.755 10.6356 19.5393 9.89791 17.7296 8.64567V17.6847C17.7296 22.1988 13.9217 25.8714 9.24024 25.8714C7.43115 25.8714 5.75354 25.3211 4.37476 24.3873C5.16747 25.2116 6.12816 25.8692 7.19671 26.3188C8.26526 26.7684 9.41857 27.0003 10.5844 27C15.2658 27 19.0744 23.3274 19.0744 18.8138V9.77484C20.944 11.0712 23.1891 11.7674 25.4918 11.7648V7.31615C25.0301 7.31615 24.5811 7.26789 24.147 7.17822" fill="#FF004F"/>
<path fill-rule="evenodd" clip-rule="evenodd" d="M17.7296 17.6843V8.64541C19.5991 9.94186 21.8443 10.6381 24.147 10.6354V7.17858C22.7893 6.89621 21.5632 6.19691 20.6526 5.18553C19.9234 4.72813 19.2979 4.13276 18.8142 3.43548C18.3306 2.73819 17.9986 1.9535 17.8386 1.12891H14.4616L14.4545 18.9539C14.377 20.95 12.673 22.5523 10.5844 22.5523C9.96982 22.5517 9.36426 22.41 8.81774 22.1391C8.27127 21.8681 7.79947 21.4756 7.44142 20.994C6.81509 20.6773 6.29039 20.2017 5.92405 19.6184C5.55772 19.0351 5.3637 18.3663 5.363 17.6843C5.36417 16.6931 5.77303 15.7428 6.49992 15.0419C7.22675 14.341 8.21229 13.9468 9.24024 13.9456C9.63913 13.9456 10.022 14.0087 10.3843 14.1188V10.631C5.79519 10.7349 2.09497 14.3636 2.09497 18.8136C2.09497 20.9655 2.962 22.9246 4.37476 24.3877C5.79899 25.3545 7.49853 25.8727 9.24024 25.8712C13.9217 25.8712 17.7296 22.1986 17.7296 17.6843Z" fill="white"/>
</svg>
