<svg width="27" height="27" viewBox="0 0 27 27" fill="none" xmlns="http://www.w3.org/2000/svg">
<path d="M27 13.5C27 6.04416 20.9558 0 13.5 0C6.04416 0 0 6.04416 0 13.5C0 20.9558 6.04416 27 13.5 27C20.9558 27 27 20.9558 27 13.5Z" fill="#FF0000"/>
<path d="M13.4944 7.12988C13.4944 7.12988 7.80469 7.12989 6.37665 7.50096C5.61203 7.7146 4.98242 8.34421 4.76878 9.12008C4.39771 10.5481 4.39771 13.5055 4.39771 13.5055C4.39771 13.5055 4.39771 16.474 4.76878 17.8796C4.98242 18.6555 5.60078 19.2738 6.37665 19.4875C7.81593 19.8698 13.4944 19.8698 13.4944 19.8698C13.4944 19.8698 19.1954 19.8698 20.6234 19.4987C21.3992 19.2851 22.0176 18.678 22.22 17.8909C22.6023 16.4741 22.6023 13.5167 22.6023 13.5167C22.6023 13.5167 22.6136 10.5481 22.22 9.12008C22.0176 8.34421 21.3992 7.72586 20.6234 7.52346C19.1954 7.1299 13.4944 7.12988 13.4944 7.12988ZM11.684 10.7731L16.418 13.5055L11.684 16.2266V10.7731Z" fill="white"/>
</svg>
