<svg xmlns="http://www.w3.org/2000/svg" xmlns:xlink="http://www.w3.org/1999/xlink" width="500" zoomAndPan="magnify" viewBox="0 0 375 374.999991" height="500" preserveAspectRatio="xMidYMid meet" version="1.0"><defs><g/><clipPath id="0e4d957ed5"><path d="M 60.867188 78.050781 L 100 78.050781 L 100 117 L 60.867188 117 Z M 60.867188 78.050781 " clip-rule="nonzero"/></clipPath><clipPath id="c33f101fdd"><path d="M 61 78.050781 L 108 78.050781 L 108 139 L 61 139 Z M 61 78.050781 " clip-rule="nonzero"/></clipPath><clipPath id="3c216da3c6"><path d="M 76 137 L 94 137 L 94 142.550781 L 76 142.550781 Z M 76 137 " clip-rule="nonzero"/></clipPath></defs><rect x="-37.5" width="450" fill="#ffffff" y="-37.499999" height="449.999989" fill-opacity="1"/><rect x="-37.5" width="450" fill="#ffffff" y="-37.499999" height="449.999989" fill-opacity="1"/><g clip-path="url(#0e4d957ed5)"><path fill="#ffbd59" d="M 99.84375 97.511719 C 99.84375 98.152344 99.8125 98.785156 99.75 99.421875 C 99.6875 100.054688 99.59375 100.683594 99.46875 101.308594 C 99.34375 101.933594 99.191406 102.550781 99.003906 103.164062 C 98.820312 103.773438 98.605469 104.371094 98.363281 104.960938 C 98.117188 105.550781 97.847656 106.125 97.546875 106.6875 C 97.246094 107.25 96.917969 107.796875 96.5625 108.324219 C 96.210938 108.855469 95.832031 109.367188 95.425781 109.859375 C 95.023438 110.351562 94.59375 110.824219 94.144531 111.273438 C 93.691406 111.726562 93.222656 112.152344 92.726562 112.558594 C 92.234375 112.960938 91.722656 113.339844 91.195312 113.695312 C 90.664062 114.046875 90.117188 114.375 89.554688 114.675781 C 88.996094 114.976562 88.417969 115.25 87.828125 115.492188 C 87.242188 115.738281 86.640625 115.949219 86.03125 116.136719 C 85.421875 116.320312 84.804688 116.476562 84.179688 116.601562 C 83.554688 116.722656 82.925781 116.816406 82.289062 116.878906 C 81.65625 116.941406 81.019531 116.972656 80.382812 116.972656 C 79.746094 116.972656 79.109375 116.941406 78.476562 116.878906 C 77.839844 116.816406 77.210938 116.722656 76.585938 116.601562 C 75.960938 116.476562 75.34375 116.320312 74.734375 116.136719 C 74.125 115.949219 73.523438 115.738281 72.933594 115.492188 C 72.347656 115.25 71.769531 114.976562 71.207031 114.675781 C 70.648438 114.375 70.101562 114.046875 69.570312 113.695312 C 69.039062 113.339844 68.527344 112.960938 68.035156 112.558594 C 67.542969 112.152344 67.070312 111.726562 66.621094 111.273438 C 66.171875 110.824219 65.742188 110.351562 65.339844 109.859375 C 64.933594 109.367188 64.554688 108.855469 64.203125 108.324219 C 63.847656 107.796875 63.519531 107.25 63.21875 106.6875 C 62.917969 106.125 62.648438 105.550781 62.402344 104.960938 C 62.160156 104.371094 61.945312 103.773438 61.757812 103.164062 C 61.574219 102.550781 61.417969 101.933594 61.296875 101.308594 C 61.171875 100.683594 61.078125 100.054688 61.015625 99.421875 C 60.953125 98.785156 60.921875 98.152344 60.921875 97.511719 C 60.921875 96.875 60.953125 96.238281 61.015625 95.605469 C 61.078125 94.972656 61.171875 94.339844 61.296875 93.714844 C 61.417969 93.089844 61.574219 92.472656 61.757812 91.863281 C 61.945312 91.253906 62.160156 90.65625 62.402344 90.066406 C 62.648438 89.476562 62.917969 88.902344 63.21875 88.339844 C 63.519531 87.777344 63.847656 87.230469 64.203125 86.703125 C 64.554688 86.171875 64.933594 85.660156 65.339844 85.167969 C 65.742188 84.675781 66.171875 84.203125 66.621094 83.753906 C 67.070312 83.300781 67.542969 82.875 68.035156 82.46875 C 68.527344 82.066406 69.039062 81.6875 69.570312 81.332031 C 70.101562 80.976562 70.648438 80.652344 71.207031 80.351562 C 71.769531 80.050781 72.347656 79.777344 72.933594 79.535156 C 73.523438 79.289062 74.125 79.074219 74.734375 78.890625 C 75.34375 78.707031 75.960938 78.550781 76.585938 78.425781 C 77.210938 78.300781 77.839844 78.207031 78.476562 78.144531 C 79.109375 78.082031 79.746094 78.050781 80.382812 78.050781 C 81.019531 78.050781 81.65625 78.082031 82.289062 78.144531 C 82.925781 78.207031 83.554688 78.300781 84.179688 78.425781 C 84.804688 78.550781 85.421875 78.707031 86.03125 78.890625 C 86.640625 79.074219 87.242188 79.289062 87.828125 79.535156 C 88.417969 79.777344 88.996094 80.050781 89.554688 80.351562 C 90.117188 80.652344 90.664062 80.976562 91.195312 81.332031 C 91.722656 81.6875 92.234375 82.066406 92.726562 82.46875 C 93.222656 82.875 93.691406 83.300781 94.144531 83.753906 C 94.59375 84.203125 95.023438 84.675781 95.425781 85.167969 C 95.832031 85.660156 96.210938 86.171875 96.5625 86.703125 C 96.917969 87.230469 97.246094 87.777344 97.546875 88.339844 C 97.847656 88.902344 98.117188 89.476562 98.363281 90.066406 C 98.605469 90.65625 98.820312 91.253906 99.003906 91.863281 C 99.191406 92.472656 99.34375 93.089844 99.46875 93.714844 C 99.59375 94.339844 99.6875 94.972656 99.75 95.605469 C 99.8125 96.238281 99.84375 96.875 99.84375 97.511719 Z M 99.84375 97.511719 " fill-opacity="1" fill-rule="nonzero"/></g><g clip-path="url(#c33f101fdd)"><path fill="#04182d" d="M 95.671875 138.5 L 73.78125 138.5 C 73.40625 138.5 73.105469 138.195312 73.105469 137.824219 L 73.105469 125.324219 C 73.105469 123.171875 72.109375 121.144531 70.375 119.761719 C 64.140625 114.8125 60.925781 107.109375 61.773438 99.15625 C 62.933594 88.226562 72.097656 79.414062 83.085938 78.652344 C 89.566406 78.203125 95.746094 80.386719 100.476562 84.800781 C 105.140625 89.152344 107.816406 95.304688 107.816406 101.683594 C 107.816406 108.773438 104.621094 115.371094 99.054688 119.78125 C 97.335938 121.144531 96.347656 123.167969 96.347656 125.324219 L 96.347656 137.824219 C 96.347656 138.195312 96.046875 138.5 95.671875 138.5 Z M 74.453125 137.152344 L 95 137.152344 L 95 125.324219 C 95 122.753906 96.171875 120.347656 98.21875 118.726562 C 103.460938 114.570312 106.46875 108.359375 106.46875 101.683594 C 106.46875 95.679688 103.949219 89.882812 99.554688 85.785156 C 95.105469 81.628906 89.292969 79.574219 83.179688 79.996094 C 72.832031 80.710938 64.207031 89.011719 63.113281 99.300781 C 62.316406 106.789062 65.34375 114.046875 71.210938 118.707031 C 73.269531 120.34375 74.453125 122.757812 74.453125 125.324219 Z M 74.453125 137.152344 " fill-opacity="1" fill-rule="nonzero"/></g><g clip-path="url(#3c216da3c6)"><path fill="#04182d" d="M 84.5625 142.363281 C 79.78125 142.363281 76.035156 140.371094 76.035156 137.824219 C 76.035156 137.453125 76.339844 137.152344 76.710938 137.152344 C 77.082031 137.152344 77.382812 137.453125 77.382812 137.824219 C 77.382812 139.335938 80.332031 141.019531 84.5625 141.019531 C 88.792969 141.019531 91.742188 139.335938 91.742188 137.824219 C 91.742188 137.453125 92.042969 137.152344 92.414062 137.152344 C 92.789062 137.152344 93.089844 137.453125 93.089844 137.824219 C 93.089844 140.371094 89.34375 142.363281 84.5625 142.363281 Z M 84.5625 142.363281 " fill-opacity="1" fill-rule="nonzero"/></g><path fill="#04182d" d="M 71.171875 126 C 70.820312 126 70.527344 125.726562 70.5 125.371094 C 70.476562 125 70.757812 124.679688 71.125 124.652344 L 98.234375 122.773438 C 98.613281 122.753906 98.925781 123.03125 98.953125 123.398438 C 98.976562 123.769531 98.695312 124.09375 98.328125 124.117188 L 71.21875 125.996094 C 71.203125 125.996094 71.1875 126 71.171875 126 Z M 71.171875 126 " fill-opacity="1" fill-rule="nonzero"/><path fill="#04182d" d="M 71.171875 130.304688 C 70.820312 130.304688 70.527344 130.035156 70.5 129.679688 C 70.476562 129.308594 70.757812 128.984375 71.125 128.960938 L 98.234375 127.082031 C 98.613281 127.0625 98.925781 127.335938 98.953125 127.707031 C 98.976562 128.078125 98.695312 128.398438 98.328125 128.425781 L 71.21875 130.304688 C 71.203125 130.304688 71.1875 130.304688 71.171875 130.304688 Z M 71.171875 130.304688 " fill-opacity="1" fill-rule="nonzero"/><path fill="#04182d" d="M 71.171875 134.613281 C 70.820312 134.613281 70.527344 134.339844 70.5 133.984375 C 70.476562 133.613281 70.757812 133.292969 71.125 133.265625 L 98.234375 131.386719 C 98.613281 131.363281 98.925781 131.644531 98.953125 132.011719 C 98.976562 132.382812 98.695312 132.707031 98.328125 132.730469 L 71.21875 134.609375 C 71.203125 134.609375 71.1875 134.613281 71.171875 134.613281 Z M 71.171875 134.613281 " fill-opacity="1" fill-rule="nonzero"/><path stroke-linecap="butt" transform="matrix(1.103126, 0, 0, 1.103126, 55.371308, 148.452045)" fill="none" stroke-linejoin="miter" d="M 3.937478 11.357197 L 20.382217 11.357197 C 19.854597 20.209877 18.664797 27.872757 16.816357 34.345837 C 18.664797 37.515096 20.382217 40.818916 21.968617 44.253756 L 18.799357 47.224716 C 17.609557 44.583076 16.356018 42.008717 15.035198 39.498097 C 12.655597 45.308996 9.550077 49.933636 5.718637 53.368476 L 3.342578 50.000916 C 7.436057 46.431516 10.474297 41.346536 12.457297 34.742437 C 9.815658 30.248816 7.039457 25.889757 4.135778 21.661716 L 7.106737 19.483957 C 9.486338 22.784236 11.795117 26.155337 14.043698 29.590177 C 14.967917 26.155337 15.626557 21.399677 16.023157 15.319656 L 3.937478 15.319656 Z M 29.302177 8.584537 L 33.066337 9.576038 C 32.538717 11.821077 31.876537 14.066117 31.083336 16.311157 L 47.135016 16.311157 L 47.135016 19.880557 C 47.135016 20.011577 46.706546 21.102227 45.849607 23.148967 C 44.989126 25.195706 44.096776 27.146837 43.172556 28.995277 L 39.804997 27.210576 C 40.991256 24.834517 41.982756 22.454917 42.775956 20.078857 L 29.698777 20.078857 C 28.243397 23.775737 26.263937 27.277857 23.753317 30.581677 L 20.778817 27.408876 C 24.479237 22.256617 27.319177 15.981837 29.302177 8.584537 Z M 32.868037 23.248117 L 36.632196 23.644717 L 36.433896 30.383377 C 36.433896 31.835217 37.425396 34.873456 39.408397 39.498097 C 41.387856 44.122737 44.691676 48.085196 49.316316 51.385475 L 45.948757 54.558276 C 40.927517 50.461256 37.361657 44.912396 35.247637 37.911696 C 33.661237 44.515796 29.897077 50.064656 23.951617 54.558276 L 20.977117 51.385475 C 25.205157 48.216216 28.211527 44.682226 29.996227 40.787047 C 31.777386 36.888326 32.737017 31.042016 32.868037 23.248117 Z M 32.868037 23.248117 " stroke="#000000" stroke-width="0.919643" stroke-opacity="1" stroke-miterlimit="4"/><path stroke-linecap="butt" transform="matrix(1.103126, 0, 0, 1.103126, 55.371308, 148.452045)" fill="none" stroke-linejoin="miter" d="M 3.937478 82.359233 L 20.382217 82.359233 C 19.854597 91.208372 18.664797 98.871252 16.816357 105.344332 C 18.664797 108.517132 20.382217 111.817411 21.968617 115.252251 L 18.799357 118.226752 C 17.609557 115.585112 16.356018 113.007212 15.035198 110.496592 C 12.655597 116.311032 9.550077 120.935672 5.718637 124.370512 L 3.342578 120.999411 C 7.436057 117.433552 10.474297 112.348572 12.457297 105.740932 C 9.815658 101.250852 7.039457 96.891793 4.135778 92.663753 L 7.106737 90.482452 C 9.486338 93.786272 11.795117 97.153832 14.043698 100.588672 C 14.967917 97.153832 15.626557 92.398172 16.023157 86.321693 L 3.937478 86.321693 Z M 29.302177 79.583032 L 33.066337 80.574533 C 32.538717 82.819572 31.876537 85.064612 31.083336 87.313193 L 47.135016 87.313193 L 47.135016 90.879052 C 47.135016 91.010072 46.706546 92.100722 45.849607 94.147462 C 44.989126 96.197743 44.096776 98.145332 43.172556 99.993772 L 39.804997 98.212613 C 40.991256 95.833012 41.982756 93.456953 42.775956 91.077352 L 29.698777 91.077352 C 28.243397 94.777773 26.263937 98.276352 23.753317 101.580172 L 20.778817 98.410913 C 24.479237 93.258653 27.319177 86.980332 29.302177 79.583032 Z M 32.868037 94.246612 L 36.632196 94.643212 L 36.433896 101.381872 C 36.433896 102.833712 37.425396 105.871951 39.408397 110.496592 C 41.387856 115.121232 44.691676 119.083691 49.316316 122.387512 L 45.948757 125.556771 C 40.927517 121.463292 37.361657 115.914432 35.247637 108.913732 C 33.661237 115.517832 29.897077 121.066692 23.951617 125.556771 L 20.977117 122.387512 C 25.205157 119.218252 28.211527 115.684262 29.996227 111.785542 C 31.777386 107.886821 32.737017 102.044053 32.868037 94.246612 Z M 32.868037 94.246612 " stroke="#000000" stroke-width="0.919643" stroke-opacity="1" stroke-miterlimit="4"/><g fill="#ffde59" fill-opacity="1"><g transform="translate(225.616708, 229.584908)"><g><path d="M -58.703125 -11.574219 C -58.703125 -6.117188 -55.230469 -3.308594 -49.9375 -3.308594 L -7.9375 -3.308594 C -2.8125 -3.308594 0.828125 -6.117188 0.828125 -11.574219 C 0.828125 -17.03125 -2.8125 -19.84375 -7.9375 -19.84375 L -49.9375 -19.84375 C -55.230469 -19.84375 -58.703125 -17.03125 -58.703125 -11.574219 Z M -58.703125 -11.574219 "/></g></g></g><g fill="#5ce1e6" fill-opacity="1"><g transform="translate(118.301967, 211.711411)"><g><path d="M 11.574219 -58.703125 C 6.117188 -58.703125 3.308594 -55.230469 3.308594 -49.9375 L 3.308594 -7.9375 C 3.308594 -2.8125 6.117188 0.828125 11.574219 0.828125 C 17.03125 0.828125 19.84375 -2.8125 19.84375 -7.9375 L 19.84375 -49.9375 C 19.84375 -55.230469 17.03125 -58.703125 11.574219 -58.703125 Z M 11.574219 -58.703125 "/></g></g></g><g fill="#ff8bd2" fill-opacity="1"><g transform="translate(277.559864, 198.408936)"><g><path d="M -14.820312 -57.96875 C -19.746094 -55.621094 -20.789062 -51.277344 -18.511719 -46.5 L -0.429688 -8.589844 C 1.773438 -3.960938 5.878906 -1.886719 10.804688 -4.234375 C 15.730469 -6.585938 16.699219 -11.078125 14.496094 -15.707031 L -3.585938 -53.617188 C -5.863281 -58.394531 -9.894531 -60.316406 -14.820312 -57.96875 Z M -14.820312 -57.96875 "/></g></g></g><path stroke-linecap="butt" transform="matrix(0.365445, 0, 0, 0.365445, 124.74855, 152.60706)" fill="none" stroke-linejoin="miter" d="M 57.168878 61.500301 L 68.830605 65.583509 C 56.388579 92.412964 42.578358 114.004796 27.421319 130.337627 C 37.917942 127.996731 47.441864 125.666523 56.003774 123.336315 C 54.058371 118.280406 51.717475 113.416899 49.002462 108.745795 L 58.911189 104.08538 C 64.362592 113.416899 69.023007 123.72112 72.913813 134.998042 L 62.41719 139.669147 C 61.636891 137.32825 60.664189 134.80564 59.499086 132.079938 C 45.496462 137.135848 30.136332 141.026653 13.418695 143.752355 L 9.912695 133.245042 C 20.804812 122.363614 31.109033 108.553393 40.836046 91.835756 C 32.274137 94.165964 23.338111 95.918964 13.995903 97.084068 L 11.665695 85.422341 C 22.942617 72.200016 32.274137 54.498989 39.670943 32.340639 L 51.33267 35.83595 C 44.331358 56.444392 35.587735 72.777223 25.080422 84.834444 C 33.246838 84.054146 40.440553 83.081444 46.661566 81.91634 Z M 74.078917 53.921782 L 92.164748 53.921782 L 92.164748 28.257431 L 103.826475 28.257431 L 103.826475 53.921782 L 138.245138 53.921782 C 137.860334 109.141289 136.299736 140.641848 133.584723 148.41277 C 130.859022 156.194381 126.187917 160.085186 119.582099 160.085186 C 114.52619 160.085186 108.689982 159.49729 102.084164 158.332186 L 100.331164 146.670459 C 108.112775 147.835562 114.333788 148.41277 118.994203 148.41277 C 121.3351 148.41277 122.885008 145.109861 123.665307 138.504043 C 125.995515 123.336315 127.160619 98.837068 127.160619 65.006302 L 103.826475 65.006302 C 103.44167 112.059393 92.164748 144.532653 69.995709 162.415394 L 61.829293 153.671771 C 81.668125 136.943445 91.779943 107.388289 92.164748 65.006302 L 74.078917 65.006302 Z M 234.489127 33.505743 L 246.161543 33.505743 L 246.161543 144.329562 C 246.161543 145.89016 246.941842 146.959062 248.49175 147.546959 C 250.052348 148.124166 255.30066 148.41277 264.247374 148.41277 C 270.072893 148.41277 273.963699 147.247666 275.909101 144.917458 C 277.854504 142.587251 279.21201 136.163146 279.992309 125.666523 L 291.076829 130.337627 C 289.131426 143.559952 286.598127 151.726368 283.487621 154.836874 C 280.377114 157.947381 273.963699 159.49729 264.247374 159.49729 C 251.409854 159.49729 243.243439 158.428387 239.737438 156.290582 C 236.242127 154.152777 234.489127 150.753666 234.489127 146.082562 Z M 194.822152 34.08295 L 206.494568 34.08295 C 206.494568 68.309211 205.906672 89.302457 204.741568 97.084068 C 202.796165 112.636601 198.809158 125.666523 192.780548 136.163146 C 186.762626 146.670459 178.48932 155.029277 167.992697 161.25029 L 159.826281 151.330874 C 168.772996 146.274965 175.96671 139.572946 181.407425 131.203438 C 186.858828 122.84462 190.45034 113.320698 192.203341 102.620983 C 193.956341 91.931958 194.822152 69.08951 194.822152 34.08295 Z M 340.075323 54.498989 L 403.653649 54.498989 L 403.653649 65.583509 L 340.075323 65.583509 Z M 333.074011 80.751237 L 412.407961 80.751237 L 412.407961 91.835756 L 390.816129 91.835756 L 390.816129 119.830315 C 390.816129 121.775718 391.211623 122.940821 391.991921 123.336315 C 392.376726 123.72112 393.734233 123.913523 396.075129 123.913523 C 401.131038 123.913523 404.337746 123.143913 405.695252 121.583315 C 407.052759 120.033406 408.121661 115.950199 408.90196 109.333692 L 419.398584 113.416899 C 417.848675 123.143913 415.71087 129.161834 412.985168 131.502731 C 410.270156 133.832939 404.62635 134.998042 396.075129 134.998042 C 389.073817 134.998042 384.498914 134.025341 382.361109 132.079938 C 380.223304 130.134536 379.154401 126.639224 379.154401 121.583315 L 379.154401 91.835756 L 364.57457 91.835756 C 363.794271 104.277782 361.464064 113.609302 357.573258 119.830315 C 353.682453 126.051328 346.296336 131.695134 335.404219 136.751043 L 328.990803 126.831627 C 337.937518 122.940821 343.95544 118.472809 347.076635 113.416899 C 350.187142 108.36099 352.132544 101.167276 352.902154 91.835756 L 333.074011 91.835756 Z M 434.566311 32.917846 L 434.566311 162.415394 L 422.904584 162.415394 L 422.904584 154.248978 L 323.742492 154.248978 L 323.742492 162.415394 L 312.070076 162.415394 L 312.070076 32.917846 Z M 323.742492 143.164458 L 422.904584 143.164458 L 422.904584 44.002366 L 323.742492 44.002366 Z M 323.742492 143.164458 " stroke="#000000" stroke-width="2.706624" stroke-opacity="1" stroke-miterlimit="4"/><g fill="#000000" fill-opacity="1"><g transform="translate(142.4936, 257.813347)"><g><path d="M 7.59375 -14.625 L 9.21875 -14.28125 C 9.070312 -13.757812 8.8125 -13.171875 8.4375 -12.515625 L 15.40625 -12.515625 L 15.40625 1.625 L 14 1.625 L 14 0.21875 L 3.9375 0.21875 L 3.9375 1.625 L 2.53125 1.625 L 2.53125 -12.515625 L 6.828125 -12.515625 C 7.203125 -13.171875 7.457031 -13.875 7.59375 -14.625 Z M 3.9375 -8.71875 L 14 -8.71875 L 14 -11.1875 L 3.9375 -11.1875 Z M 3.9375 -4.921875 L 14 -4.921875 L 14 -7.390625 L 3.9375 -7.390625 Z M 3.9375 -1.125 L 14 -1.125 L 14 -3.59375 L 3.9375 -3.59375 Z M 3.9375 -1.125 "/></g></g><g transform="translate(160.493599, 257.813347)"><g><path d="M 14.765625 -2.53125 C 15.660156 -1.550781 16.390625 -0.472656 16.953125 0.703125 L 15.46875 1.34375 C 14.957031 0.164062 14.28125 -0.914062 13.4375 -1.90625 Z M 3.3125 -2.1875 L 4.578125 -1.484375 C 3.773438 -0.160156 2.976562 0.875 2.1875 1.625 L 0.984375 0.5625 C 1.921875 -0.28125 2.695312 -1.195312 3.3125 -2.1875 Z M 10.828125 -2.1875 C 11.441406 -1.289062 11.957031 -0.328125 12.375 0.703125 L 10.96875 1.34375 C 10.59375 0.207031 10.125 -0.78125 9.5625 -1.625 Z M 7.53125 -1.90625 C 7.851562 -0.96875 8.0625 -0.0234375 8.15625 0.921875 L 6.6875 1.34375 C 6.539062 0.300781 6.351562 -0.660156 6.125 -1.546875 Z M 4.4375 -14.5625 L 5.703125 -14.203125 L 5.203125 -12.875 L 8.9375 -12.875 C 8.507812 -7.851562 6.445312 -4.382812 2.75 -2.46875 L 1.90625 -3.734375 C 4.945312 -5.140625 6.773438 -7.765625 7.390625 -11.609375 L 4.71875 -11.609375 C 4.625 -11.421875 4.503906 -11.234375 4.359375 -11.046875 C 5.109375 -10.617188 5.789062 -10.125 6.40625 -9.5625 L 5.484375 -8.578125 C 4.921875 -9.097656 4.335938 -9.546875 3.734375 -9.921875 C 3.585938 -9.640625 3.421875 -9.378906 3.234375 -9.140625 C 3.984375 -8.578125 4.664062 -7.945312 5.28125 -7.25 L 4.359375 -6.1875 C 3.753906 -6.9375 3.097656 -7.570312 2.390625 -8.09375 C 2.253906 -7.90625 2.066406 -7.691406 1.828125 -7.453125 L 0.921875 -8.4375 C 2.421875 -10.082031 3.59375 -12.125 4.4375 -14.5625 Z M 9 -10.96875 L 11.609375 -10.96875 C 11.648438 -11.957031 11.671875 -13.128906 11.671875 -14.484375 L 13.015625 -14.484375 C 13.015625 -13.171875 12.988281 -12 12.9375 -10.96875 L 16.390625 -10.96875 L 16.390625 -9.703125 L 13.4375 -9.703125 C 13.851562 -7.265625 15.023438 -5.320312 16.953125 -3.875 L 16.03125 -2.671875 C 14.4375 -3.984375 13.265625 -5.742188 12.515625 -7.953125 C 11.910156 -5.648438 10.484375 -3.890625 8.234375 -2.671875 L 7.59375 -3.796875 C 9.894531 -5.109375 11.1875 -7.078125 11.46875 -9.703125 L 9 -9.703125 Z M 14.703125 -14.34375 C 15.265625 -13.78125 15.800781 -13.125 16.3125 -12.375 L 15.1875 -11.53125 C 14.769531 -12.238281 14.28125 -12.941406 13.71875 -13.640625 Z M 14.703125 -14.34375 "/></g></g><g transform="translate(178.493598, 257.813347)"><g><path d="M 5.84375 -0.359375 L 4.015625 2.1875 L 2.953125 2.1875 L 4.15625 -0.359375 L 3.09375 -0.359375 L 3.09375 -2.671875 L 5.84375 -2.671875 Z M 5.84375 -0.359375 "/></g></g><g transform="translate(196.493596, 257.813347)"><g><path d="M 1.265625 -9.21875 L 6.609375 -9.21875 L 7.109375 -11.1875 L 2.609375 -11.1875 L 2.609375 -12.515625 L 7.453125 -12.515625 L 7.734375 -14.5625 L 9.28125 -14.421875 L 8.9375 -12.515625 L 15.265625 -12.515625 L 15.265625 -11.1875 L 8.65625 -11.1875 L 8.15625 -9.21875 L 16.59375 -9.21875 L 16.59375 -7.875 L 7.8125 -7.875 L 7.171875 -5.90625 L 14.625 -5.90625 L 14.625 -4.5 C 13.59375 -3.144531 12.398438 -1.972656 11.046875 -0.984375 C 11.796875 -0.566406 12.5 -0.144531 13.15625 0.28125 L 12.234375 1.546875 C 10.128906 0.179688 7.550781 -1.035156 4.5 -2.109375 L 5.140625 -3.375 C 6.773438 -2.863281 8.273438 -2.300781 9.640625 -1.6875 C 10.765625 -2.488281 11.796875 -3.453125 12.734375 -4.578125 L 5.984375 -4.578125 L 5.421875 -5.90625 C 5.742188 -6.46875 6.023438 -7.125 6.265625 -7.875 L 1.265625 -7.875 Z M 1.265625 -9.21875 "/></g></g><g transform="translate(214.493595, 257.813347)"><g><path d="M 1.0625 -0.703125 L 6.46875 -0.703125 L 6.46875 -14.203125 L 7.875 -14.203125 L 7.875 -0.703125 L 10.125 -0.703125 L 10.125 -14.203125 L 11.53125 -14.203125 L 11.53125 -0.703125 L 16.953125 -0.703125 L 16.953125 0.640625 L 1.0625 0.640625 Z M 14.90625 -11.109375 L 16.3125 -10.625 C 15.613281 -7.90625 14.703125 -5.441406 13.578125 -3.234375 L 12.234375 -3.9375 C 13.265625 -6.09375 14.15625 -8.484375 14.90625 -11.109375 Z M 3.375 -10.90625 C 4.3125 -8.789062 5.015625 -6.445312 5.484375 -3.875 L 3.875 -3.3125 C 3.445312 -5.9375 2.789062 -8.328125 1.90625 -10.484375 Z M 3.375 -10.90625 "/></g></g></g></svg>